# MagicaVoxel @ Ephtracy

# group
o 

# material
mtllib lukstrela.mtl
usemtl palette

# normals
vn -1 0 0
vn 1 0 0
vn 0 0 1
vn 0 0 -1
vn 0 -1 0
vn 0 1 0

# texcoords
vt 0.232422 0.5
vt 0.396484 0.5
vt 0.962891 0.5
vt 0.982422 0.5

# verts
v -0.6 -2 0
v -0.6 -2 -0.1
v -0.6 -1.9 0.1
v -0.6 -1.9 0
v -0.6 -1.9 -0.1
v -0.6 -1.9 -0.2
v -0.6 -1.8 0.1
v -0.6 -1.8 0
v -0.6 -1.8 -0.1
v -0.6 -1.8 -0.2
v -0.6 -1.7 0
v -0.6 -1.7 -0.1
v -0.5 -1.9 0
v -0.5 -1.9 -0.1
v -0.5 -1.8 0
v -0.5 -1.8 -0.1
v -0.4 -2 -0.3
v -0.4 -2 -0.4
v -0.4 -1.9 0.3
v -0.4 -1.9 0.1
v -0.4 -1.9 -0.2
v -0.4 -1.9 -0.3
v -0.4 -1.9 -0.4
v -0.4 -1.9 -0.7
v -0.4 -1.8 0.3
v -0.4 -1.8 0.1
v -0.4 -1.8 -0.2
v -0.4 -1.8 -0.7
v -0.3 -1.9 0.5
v -0.3 -1.9 0.3
v -0.3 -1.9 -0.7
v -0.3 -1.9 -0.8
v -0.3 -1.8 0.5
v -0.3 -1.8 0.3
v -0.3 -1.8 -0.7
v -0.3 -1.8 -0.8
v -0.2 -1.9 0.6
v -0.2 -1.9 0.5
v -0.2 -1.9 -0.8
v -0.2 -1.9 -0.9
v -0.2 -1.8 0.6
v -0.2 -1.8 0.5
v -0.2 -1.8 -0.8
v -0.2 -1.8 -0.9
v -0.1 -1.9 0.7
v -0.1 -1.9 0.6
v -0.1 -1.9 -0.9
v -0.1 -1.9 -1.2
v -0.1 -1.8 0.7
v -0.1 -1.8 0.6
v -0.1 -1.8 -0.9
v -0.1 -1.8 -1.2
v -5.96046e-08 -1.9 0.9
v -5.96046e-08 -1.9 0.8
v -5.96046e-08 -1.9 0.7
v -5.96046e-08 -1.9 0.6
v -5.96046e-08 -1.9 0.5
v -5.96046e-08 -1.9 -1.2
v -5.96046e-08 -1.9 -1.3
v -5.96046e-08 -1.8 0.9
v -5.96046e-08 -1.8 0.8
v -5.96046e-08 -1.8 0.7
v -5.96046e-08 -1.8 0.6
v -5.96046e-08 -1.8 0.5
v -5.96046e-08 -1.8 -1.2
v -5.96046e-08 -1.8 -1.3
v 0.1 -1.9 0.5
v 0.1 -1.9 0.3
v 0.1 -1.9 -0.6
v 0.1 -1.9 -0.9
v 0.1 -1.8 0.5
v 0.1 -1.8 0.3
v 0.1 -1.8 -0.6
v 0.1 -1.8 -0.9
v 0.2 -1.9 0.3
v 0.2 -1.9 0
v 0.2 -1.9 -0.1
v 0.2 -1.9 -0.6
v 0.2 -1.8 0.3
v 0.2 -1.8 0
v 0.2 -1.8 -0.1
v 0.2 -1.8 -0.6
v 0.5 -2 0
v 0.5 -2 -0.1
v 0.5 -1.9 0.1
v 0.5 -1.9 0
v 0.5 -1.9 -0.1
v 0.5 -1.9 -0.2
v 0.5 -1.8 0.1
v 0.5 -1.8 0
v 0.5 -1.8 -0.1
v 0.5 -1.8 -0.2
v 0.5 -1.7 0
v 0.5 -1.7 -0.1
v -0.4 -2 0
v -0.4 -2 -0.1
v -0.4 -1.9 0
v -0.4 -1.9 -0.1
v -0.4 -1.8 0
v -0.4 -1.8 -0.1
v -0.4 -1.7 0
v -0.4 -1.7 -0.1
v -0.3 -2 -0.3
v -0.3 -2 -0.4
v -0.3 -1.9 0.3
v -0.3 -1.9 0
v -0.3 -1.9 -0.1
v -0.3 -1.9 -0.3
v -0.3 -1.9 -0.4
v -0.3 -1.9 -0.7
v -0.3 -1.8 0.3
v -0.3 -1.8 0
v -0.3 -1.8 -0.1
v -0.3 -1.8 -0.7
v -0.2 -1.9 0.5
v -0.2 -1.9 0.3
v -0.2 -1.9 -0.7
v -0.2 -1.9 -0.8
v -0.2 -1.8 0.5
v -0.2 -1.8 0.3
v -0.2 -1.8 -0.7
v -0.2 -1.8 -0.8
v -0.1 -1.9 0.6
v -0.1 -1.9 0.5
v -0.1 -1.9 -0.8
v -0.1 -1.9 -0.9
v -0.1 -1.8 0.6
v -0.1 -1.8 0.5
v -0.1 -1.8 -0.8
v -0.1 -1.8 -0.9
v 0.1 -1.9 0.9
v 0.1 -1.9 0.8
v 0.1 -1.9 0.7
v 0.1 -1.9 0.6
v 0.1 -1.9 -1
v 0.1 -1.9 -1.2
v 0.1 -1.9 -1.3
v 0.1 -1.8 0.9
v 0.1 -1.8 0.8
v 0.1 -1.8 0.7
v 0.1 -1.8 0.6
v 0.1 -1.8 -1
v 0.1 -1.8 -1.2
v 0.1 -1.8 -1.3
v 0.2 -1.9 0.6
v 0.2 -1.9 0.4
v 0.2 -1.9 -0.7
v 0.2 -1.9 -1
v 0.2 -1.8 0.6
v 0.2 -1.8 0.4
v 0.2 -1.8 -0.7
v 0.2 -1.8 -1
v 0.3 -1.9 0.4
v 0.3 -1.9 0
v 0.3 -1.9 -0.1
v 0.3 -1.9 -0.7
v 0.3 -1.8 0.4
v 0.3 -1.8 0
v 0.3 -1.8 -0.1
v 0.3 -1.8 -0.7
v 0.7 -2 0
v 0.7 -2 -0.1
v 0.7 -1.9 0.1
v 0.7 -1.9 0
v 0.7 -1.9 -0.1
v 0.7 -1.9 -0.2
v 0.7 -1.8 0.1
v 0.7 -1.8 0
v 0.7 -1.8 -0.1
v 0.7 -1.8 -0.2
v 0.7 -1.7 0
v 0.7 -1.7 -0.1
v 0.8 -1.9 0
v 0.8 -1.9 -0.1
v 0.8 -1.8 0
v 0.8 -1.8 -0.1
v -5.96046e-08 -1.9 0.9
v -5.96046e-08 -1.8 0.9
v 0.1 -1.9 0.9
v 0.1 -1.8 0.9
v -0.1 -1.9 0.7
v -0.1 -1.8 0.7
v -5.96046e-08 -1.9 0.7
v -5.96046e-08 -1.8 0.7
v -0.2 -1.9 0.6
v -0.2 -1.8 0.6
v -0.1 -1.9 0.6
v -0.1 -1.8 0.6
v 0.1 -1.9 0.6
v 0.1 -1.8 0.6
v 0.2 -1.9 0.6
v 0.2 -1.8 0.6
v -0.3 -1.9 0.5
v -0.3 -1.8 0.5
v -0.2 -1.9 0.5
v -0.2 -1.8 0.5
v 0.2 -1.9 0.4
v 0.2 -1.8 0.4
v 0.3 -1.9 0.4
v 0.3 -1.8 0.4
v -0.4 -1.9 0.3
v -0.4 -1.8 0.3
v -0.3 -1.9 0.3
v -0.3 -1.8 0.3
v -0.6 -1.9 0.1
v -0.6 -1.8 0.1
v -0.4 -1.9 0.1
v -0.4 -1.8 0.1
v 0.5 -1.9 0.1
v 0.5 -1.8 0.1
v 0.7 -1.9 0.1
v 0.7 -1.8 0.1
v -0.6 -2 0
v -0.6 -1.9 0
v -0.6 -1.8 0
v -0.6 -1.7 0
v -0.4 -2 0
v -0.4 -1.9 0
v -0.4 -1.8 0
v -0.4 -1.7 0
v -0.3 -1.9 0
v -0.3 -1.8 0
v 0.2 -1.9 0
v 0.2 -1.8 0
v 0.3 -1.9 0
v 0.3 -1.8 0
v 0.5 -2 0
v 0.5 -1.9 0
v 0.5 -1.8 0
v 0.5 -1.7 0
v 0.7 -2 0
v 0.7 -1.9 0
v 0.7 -1.8 0
v 0.7 -1.7 0
v 0.8 -1.9 0
v 0.8 -1.8 0
v -0.6 -1.9 -0.1
v -0.6 -1.8 -0.1
v -0.5 -1.9 -0.1
v -0.5 -1.8 -0.1
v -0.4 -2 -0.3
v -0.4 -1.9 -0.3
v -0.3 -2 -0.3
v -0.3 -1.9 -0.3
v 0.1 -1.9 -0.6
v 0.1 -1.8 -0.6
v 0.2 -1.9 -0.6
v 0.2 -1.8 -0.6
v -0.3 -1.9 -0.7
v -0.3 -1.8 -0.7
v -0.2 -1.9 -0.7
v -0.2 -1.8 -0.7
v -0.2 -1.9 -0.8
v -0.2 -1.8 -0.8
v -0.1 -1.9 -0.8
v -0.1 -1.8 -0.8
v -0.1 -1.9 -0.9
v -0.1 -1.8 -0.9
v -5.96046e-08 -1.9 -0.9
v -5.96046e-08 -1.8 -0.9
v 0.1 -1.9 -0.9
v 0.1 -1.8 -0.9
v -0.1 -1.9 0.6
v -0.1 -1.8 0.6
v -5.96046e-08 -1.9 0.6
v -5.96046e-08 -1.8 0.6
v -0.2 -1.9 0.5
v -0.2 -1.8 0.5
v -0.1 -1.9 0.5
v -0.1 -1.8 0.5
v -5.96046e-08 -1.9 0.5
v -5.96046e-08 -1.8 0.5
v 0.1 -1.9 0.5
v 0.1 -1.8 0.5
v -0.3 -1.9 0.3
v -0.3 -1.8 0.3
v -0.2 -1.9 0.3
v -0.2 -1.8 0.3
v 0.1 -1.9 0.3
v 0.1 -1.8 0.3
v 0.2 -1.9 0.3
v 0.2 -1.8 0.3
v -0.6 -1.9 0
v -0.6 -1.8 0
v -0.5 -1.9 0
v -0.5 -1.8 0
v -0.6 -2 -0.1
v -0.6 -1.9 -0.1
v -0.6 -1.8 -0.1
v -0.6 -1.7 -0.1
v -0.4 -2 -0.1
v -0.4 -1.9 -0.1
v -0.4 -1.8 -0.1
v -0.4 -1.7 -0.1
v -0.3 -1.9 -0.1
v -0.3 -1.8 -0.1
v 0.2 -1.9 -0.1
v 0.2 -1.8 -0.1
v 0.3 -1.9 -0.1
v 0.3 -1.8 -0.1
v 0.5 -2 -0.1
v 0.5 -1.9 -0.1
v 0.5 -1.8 -0.1
v 0.5 -1.7 -0.1
v 0.7 -2 -0.1
v 0.7 -1.9 -0.1
v 0.7 -1.8 -0.1
v 0.7 -1.7 -0.1
v 0.8 -1.9 -0.1
v 0.8 -1.8 -0.1
v -0.6 -1.9 -0.2
v -0.6 -1.8 -0.2
v -0.4 -1.9 -0.2
v -0.4 -1.8 -0.2
v 0.5 -1.9 -0.2
v 0.5 -1.8 -0.2
v 0.7 -1.9 -0.2
v 0.7 -1.8 -0.2
v -0.4 -2 -0.4
v -0.4 -1.9 -0.4
v -0.3 -2 -0.4
v -0.3 -1.9 -0.4
v -0.4 -1.9 -0.7
v -0.4 -1.8 -0.7
v -0.3 -1.9 -0.7
v -0.3 -1.8 -0.7
v 0.2 -1.9 -0.7
v 0.2 -1.8 -0.7
v 0.3 -1.9 -0.7
v 0.3 -1.8 -0.7
v -0.3 -1.9 -0.8
v -0.3 -1.8 -0.8
v -0.2 -1.9 -0.8
v -0.2 -1.8 -0.8
v -0.2 -1.9 -0.9
v -0.2 -1.8 -0.9
v -0.1 -1.9 -0.9
v -0.1 -1.8 -0.9
v 0.1 -1.9 -1
v 0.1 -1.8 -1
v 0.2 -1.9 -1
v 0.2 -1.8 -1
v -0.1 -1.9 -1.2
v -0.1 -1.8 -1.2
v -5.96046e-08 -1.9 -1.2
v -5.96046e-08 -1.8 -1.2
v -5.96046e-08 -1.9 -1.3
v -5.96046e-08 -1.8 -1.3
v 0.1 -1.9 -1.3
v 0.1 -1.8 -1.3
v -0.6 -2 0
v -0.4 -2 0
v 0.5 -2 0
v 0.7 -2 0
v -0.6 -2 -0.1
v -0.4 -2 -0.1
v 0.5 -2 -0.1
v 0.7 -2 -0.1
v -0.4 -2 -0.3
v -0.3 -2 -0.3
v -0.4 -2 -0.4
v -0.3 -2 -0.4
v -5.96046e-08 -1.9 0.9
v 0.1 -1.9 0.9
v -5.96046e-08 -1.9 0.8
v 0.1 -1.9 0.8
v -0.1 -1.9 0.7
v -5.96046e-08 -1.9 0.7
v 0.1 -1.9 0.7
v -0.2 -1.9 0.6
v -0.1 -1.9 0.6
v -5.96046e-08 -1.9 0.6
v 0.1 -1.9 0.6
v 0.2 -1.9 0.6
v -0.3 -1.9 0.5
v -0.2 -1.9 0.5
v -0.1 -1.9 0.5
v -5.96046e-08 -1.9 0.5
v 0.1 -1.9 0.5
v 0.2 -1.9 0.4
v 0.3 -1.9 0.4
v -0.4 -1.9 0.3
v -0.3 -1.9 0.3
v -0.2 -1.9 0.3
v 0.1 -1.9 0.3
v 0.2 -1.9 0.3
v -0.6 -1.9 0.1
v -0.4 -1.9 0.1
v 0.5 -1.9 0.1
v 0.7 -1.9 0.1
v -0.6 -1.9 0
v -0.4 -1.9 0
v -0.3 -1.9 0
v 0.2 -1.9 0
v 0.3 -1.9 0
v 0.5 -1.9 0
v 0.7 -1.9 0
v 0.8 -1.9 0
v -0.6 -1.9 -0.1
v -0.4 -1.9 -0.1
v -0.3 -1.9 -0.1
v 0.2 -1.9 -0.1
v 0.3 -1.9 -0.1
v 0.5 -1.9 -0.1
v 0.7 -1.9 -0.1
v 0.8 -1.9 -0.1
v -0.6 -1.9 -0.2
v -0.4 -1.9 -0.2
v 0.5 -1.9 -0.2
v 0.7 -1.9 -0.2
v -0.4 -1.9 -0.3
v -0.3 -1.9 -0.3
v -0.4 -1.9 -0.4
v -0.3 -1.9 -0.4
v 0.1 -1.9 -0.6
v 0.2 -1.9 -0.6
v -0.4 -1.9 -0.7
v -0.3 -1.9 -0.7
v -0.2 -1.9 -0.7
v 0.2 -1.9 -0.7
v 0.3 -1.9 -0.7
v -0.3 -1.9 -0.8
v -0.2 -1.9 -0.8
v -0.1 -1.9 -0.8
v -0.2 -1.9 -0.9
v -0.1 -1.9 -0.9
v -5.96046e-08 -1.9 -0.9
v 0.1 -1.9 -0.9
v 0.1 -1.9 -1
v 0.2 -1.9 -1
v -0.1 -1.9 -1.2
v -5.96046e-08 -1.9 -1.2
v 0.1 -1.9 -1.2
v -5.96046e-08 -1.9 -1.3
v 0.1 -1.9 -1.3
v -0.6 -1.8 0
v -0.5 -1.8 0
v -0.6 -1.8 -0.1
v -0.5 -1.8 -0.1
v -0.6 -1.9 0
v -0.5 -1.9 0
v -0.6 -1.9 -0.1
v -0.5 -1.9 -0.1
v -5.96046e-08 -1.8 0.9
v 0.1 -1.8 0.9
v -5.96046e-08 -1.8 0.8
v 0.1 -1.8 0.8
v -0.1 -1.8 0.7
v -5.96046e-08 -1.8 0.7
v 0.1 -1.8 0.7
v -0.2 -1.8 0.6
v -0.1 -1.8 0.6
v -5.96046e-08 -1.8 0.6
v 0.1 -1.8 0.6
v 0.2 -1.8 0.6
v -0.3 -1.8 0.5
v -0.2 -1.8 0.5
v -0.1 -1.8 0.5
v -5.96046e-08 -1.8 0.5
v 0.1 -1.8 0.5
v 0.2 -1.8 0.4
v 0.3 -1.8 0.4
v -0.4 -1.8 0.3
v -0.3 -1.8 0.3
v -0.2 -1.8 0.3
v 0.1 -1.8 0.3
v 0.2 -1.8 0.3
v -0.6 -1.8 0.1
v -0.4 -1.8 0.1
v 0.5 -1.8 0.1
v 0.7 -1.8 0.1
v -0.6 -1.8 0
v -0.4 -1.8 0
v -0.3 -1.8 0
v 0.2 -1.8 0
v 0.3 -1.8 0
v 0.5 -1.8 0
v 0.7 -1.8 0
v 0.8 -1.8 0
v -0.6 -1.8 -0.1
v -0.4 -1.8 -0.1
v -0.3 -1.8 -0.1
v 0.2 -1.8 -0.1
v 0.3 -1.8 -0.1
v 0.5 -1.8 -0.1
v 0.7 -1.8 -0.1
v 0.8 -1.8 -0.1
v -0.6 -1.8 -0.2
v -0.4 -1.8 -0.2
v 0.5 -1.8 -0.2
v 0.7 -1.8 -0.2
v 0.1 -1.8 -0.6
v 0.2 -1.8 -0.6
v -0.4 -1.8 -0.7
v -0.3 -1.8 -0.7
v -0.2 -1.8 -0.7
v 0.2 -1.8 -0.7
v 0.3 -1.8 -0.7
v -0.3 -1.8 -0.8
v -0.2 -1.8 -0.8
v -0.1 -1.8 -0.8
v -0.2 -1.8 -0.9
v -0.1 -1.8 -0.9
v -5.96046e-08 -1.8 -0.9
v 0.1 -1.8 -0.9
v 0.1 -1.8 -1
v 0.2 -1.8 -1
v -0.1 -1.8 -1.2
v -5.96046e-08 -1.8 -1.2
v 0.1 -1.8 -1.2
v -5.96046e-08 -1.8 -1.3
v 0.1 -1.8 -1.3
v -0.6 -1.7 0
v -0.4 -1.7 0
v 0.5 -1.7 0
v 0.7 -1.7 0
v -0.6 -1.7 -0.1
v -0.4 -1.7 -0.1
v 0.5 -1.7 -0.1
v 0.7 -1.7 -0.1

# faces
f 4/3/1 2/3/1 1/3/1
f 5/3/1 2/3/1 4/3/1
f 7/3/1 4/3/1 3/3/1
f 8/3/1 4/3/1 7/3/1
f 9/3/1 6/3/1 5/3/1
f 10/3/1 6/3/1 9/3/1
f 11/3/1 9/3/1 8/3/1
f 12/3/1 9/3/1 11/3/1
f 15/1/1 14/1/1 13/1/1
f 16/1/1 14/1/1 15/1/1
f 22/4/1 18/4/1 17/4/1
f 23/4/1 18/4/1 22/4/1
f 25/4/1 20/4/1 19/4/1
f 26/4/1 20/4/1 25/4/1
f 27/4/1 24/4/1 23/4/1
f 27/4/1 22/4/1 21/4/1
f 27/4/1 23/4/1 22/4/1
f 28/4/1 24/4/1 27/4/1
f 33/4/1 30/4/1 29/4/1
f 34/4/1 30/4/1 33/4/1
f 35/4/1 32/4/1 31/4/1
f 36/4/1 32/4/1 35/4/1
f 41/4/1 38/4/1 37/4/1
f 42/4/1 38/4/1 41/4/1
f 43/4/1 40/4/1 39/4/1
f 44/4/1 40/4/1 43/4/1
f 49/4/1 46/4/1 45/4/1
f 50/4/1 46/4/1 49/4/1
f 51/4/1 48/4/1 47/4/1
f 52/4/1 48/4/1 51/4/1
f 60/2/1 54/2/1 53/2/1
f 61/4/1 55/4/1 54/4/1
f 61/2/1 54/2/1 60/2/1
f 62/4/1 55/4/1 61/4/1
f 63/2/1 57/2/1 56/2/1
f 64/2/1 57/2/1 63/2/1
f 65/4/1 59/4/1 58/4/1
f 66/4/1 59/4/1 65/4/1
f 71/2/1 68/2/1 67/2/1
f 72/2/1 68/2/1 71/2/1
f 73/2/1 70/2/1 69/2/1
f 74/2/1 70/2/1 73/2/1
f 79/2/1 76/2/1 75/2/1
f 80/2/1 76/2/1 79/2/1
f 81/2/1 78/2/1 77/2/1
f 82/2/1 78/2/1 81/2/1
f 86/4/1 84/4/1 83/4/1
f 87/4/1 84/4/1 86/4/1
f 89/4/1 86/4/1 85/4/1
f 90/4/1 86/4/1 89/4/1
f 91/4/1 88/4/1 87/4/1
f 92/4/1 88/4/1 91/4/1
f 93/4/1 91/4/1 90/4/1
f 94/4/1 91/4/1 93/4/1
f 95/3/2 96/3/2 97/3/2
f 97/3/2 96/3/2 98/3/2
f 99/3/2 100/3/2 101/3/2
f 101/3/2 100/3/2 102/3/2
f 103/4/2 104/4/2 108/4/2
f 108/4/2 104/4/2 109/4/2
f 105/4/2 106/4/2 111/4/2
f 111/4/2 106/4/2 112/4/2
f 109/4/2 110/4/2 113/4/2
f 107/4/2 108/4/2 113/4/2
f 108/4/2 109/4/2 113/4/2
f 113/4/2 110/4/2 114/4/2
f 115/4/2 116/4/2 119/4/2
f 119/4/2 116/4/2 120/4/2
f 117/4/2 118/4/2 121/4/2
f 121/4/2 118/4/2 122/4/2
f 123/4/2 124/4/2 127/4/2
f 127/4/2 124/4/2 128/4/2
f 125/4/2 126/4/2 129/4/2
f 129/4/2 126/4/2 130/4/2
f 131/2/2 132/2/2 138/2/2
f 132/4/2 133/4/2 139/4/2
f 138/2/2 132/2/2 139/2/2
f 133/2/2 134/2/2 140/2/2
f 139/4/2 133/4/2 140/4/2
f 140/2/2 134/2/2 141/2/2
f 135/2/2 136/2/2 142/2/2
f 136/4/2 137/4/2 143/4/2
f 142/2/2 136/2/2 143/2/2
f 143/4/2 137/4/2 144/4/2
f 145/2/2 146/2/2 149/2/2
f 149/2/2 146/2/2 150/2/2
f 147/2/2 148/2/2 151/2/2
f 151/2/2 148/2/2 152/2/2
f 153/2/2 154/2/2 157/2/2
f 157/2/2 154/2/2 158/2/2
f 155/2/2 156/2/2 159/2/2
f 159/2/2 156/2/2 160/2/2
f 161/4/2 162/4/2 164/4/2
f 164/4/2 162/4/2 165/4/2
f 163/4/2 164/4/2 167/4/2
f 167/4/2 164/4/2 168/4/2
f 165/4/2 166/4/2 169/4/2
f 169/4/2 166/4/2 170/4/2
f 168/4/2 169/4/2 171/4/2
f 171/4/2 169/4/2 172/4/2
f 173/4/2 174/4/2 175/4/2
f 175/4/2 174/4/2 176/4/2
f 179/2/3 178/2/3 177/2/3
f 180/2/3 178/2/3 179/2/3
f 183/4/3 182/4/3 181/4/3
f 184/4/3 182/4/3 183/4/3
f 187/4/3 186/4/3 185/4/3
f 188/4/3 186/4/3 187/4/3
f 191/2/3 190/2/3 189/2/3
f 192/2/3 190/2/3 191/2/3
f 195/4/3 194/4/3 193/4/3
f 196/4/3 194/4/3 195/4/3
f 199/2/3 198/2/3 197/2/3
f 200/2/3 198/2/3 199/2/3
f 203/4/3 202/4/3 201/4/3
f 204/4/3 202/4/3 203/4/3
f 207/3/3 206/3/3 205/3/3
f 208/3/3 206/3/3 207/3/3
f 211/4/3 210/4/3 209/4/3
f 212/4/3 210/4/3 211/4/3
f 217/3/3 214/3/3 213/3/3
f 218/3/3 214/3/3 217/3/3
f 219/3/3 216/3/3 215/3/3
f 220/3/3 216/3/3 219/3/3
f 223/1/3 222/1/3 221/1/3
f 224/1/3 222/1/3 223/1/3
f 228/1/3 226/1/3 225/1/3
f 229/1/3 226/1/3 228/1/3
f 231/4/3 228/4/3 227/4/3
f 232/4/3 228/4/3 231/4/3
f 233/4/3 230/4/3 229/4/3
f 234/4/3 230/4/3 233/4/3
f 235/4/3 233/4/3 232/4/3
f 236/4/3 233/4/3 235/4/3
f 239/3/3 238/3/3 237/3/3
f 240/3/3 238/3/3 239/3/3
f 243/4/3 242/4/3 241/4/3
f 244/4/3 242/4/3 243/4/3
f 247/2/3 246/2/3 245/2/3
f 248/2/3 246/2/3 247/2/3
f 251/4/3 250/4/3 249/4/3
f 252/4/3 250/4/3 251/4/3
f 255/4/3 254/4/3 253/4/3
f 256/4/3 254/4/3 255/4/3
f 259/4/3 258/4/3 257/4/3
f 260/4/3 258/4/3 259/4/3
f 261/2/3 260/2/3 259/2/3
f 262/2/3 260/2/3 261/2/3
f 263/4/4 264/4/4 265/4/4
f 265/4/4 264/4/4 266/4/4
f 267/4/4 268/4/4 269/4/4
f 269/4/4 268/4/4 270/4/4
f 271/2/4 272/2/4 273/2/4
f 273/2/4 272/2/4 274/2/4
f 275/4/4 276/4/4 277/4/4
f 277/4/4 276/4/4 278/4/4
f 279/2/4 280/2/4 281/2/4
f 281/2/4 280/2/4 282/2/4
f 283/3/4 284/3/4 285/3/4
f 285/3/4 284/3/4 286/3/4
f 287/3/4 288/3/4 291/3/4
f 291/3/4 288/3/4 292/3/4
f 289/3/4 290/3/4 293/3/4
f 293/3/4 290/3/4 294/3/4
f 295/1/4 296/1/4 297/1/4
f 297/1/4 296/1/4 298/1/4
f 299/1/4 300/1/4 302/1/4
f 302/1/4 300/1/4 303/1/4
f 301/4/4 302/4/4 305/4/4
f 305/4/4 302/4/4 306/4/4
f 303/4/4 304/4/4 307/4/4
f 307/4/4 304/4/4 308/4/4
f 306/4/4 307/4/4 309/4/4
f 309/4/4 307/4/4 310/4/4
f 311/3/4 312/3/4 313/3/4
f 313/3/4 312/3/4 314/3/4
f 315/4/4 316/4/4 317/4/4
f 317/4/4 316/4/4 318/4/4
f 319/4/4 320/4/4 321/4/4
f 321/4/4 320/4/4 322/4/4
f 323/4/4 324/4/4 325/4/4
f 325/4/4 324/4/4 326/4/4
f 327/2/4 328/2/4 329/2/4
f 329/2/4 328/2/4 330/2/4
f 331/4/4 332/4/4 333/4/4
f 333/4/4 332/4/4 334/4/4
f 335/4/4 336/4/4 337/4/4
f 337/4/4 336/4/4 338/4/4
f 339/2/4 340/2/4 341/2/4
f 341/2/4 340/2/4 342/2/4
f 343/4/4 344/4/4 345/4/4
f 345/4/4 344/4/4 346/4/4
f 347/4/4 348/4/4 349/4/4
f 349/4/4 348/4/4 350/4/4
f 355/3/5 352/3/5 351/3/5
f 356/3/5 352/3/5 355/3/5
f 357/4/5 354/4/5 353/4/5
f 358/4/5 354/4/5 357/4/5
f 361/4/5 360/4/5 359/4/5
f 362/4/5 360/4/5 361/4/5
f 365/2/5 364/2/5 363/2/5
f 366/2/5 364/2/5 365/2/5
f 368/4/5 366/4/5 365/4/5
f 369/4/5 366/4/5 368/4/5
f 371/4/5 368/4/5 367/4/5
f 372/2/5 369/2/5 368/2/5
f 372/4/5 368/4/5 371/4/5
f 373/2/5 369/2/5 372/2/5
f 376/4/5 371/4/5 370/4/5
f 377/4/5 371/4/5 376/4/5
f 378/2/5 373/2/5 372/2/5
f 378/2/5 374/2/5 373/2/5
f 379/2/5 374/2/5 378/2/5
f 380/2/5 374/2/5 379/2/5
f 383/4/5 376/4/5 375/4/5
f 384/4/5 376/4/5 383/4/5
f 385/2/5 381/2/5 380/2/5
f 385/2/5 380/2/5 379/2/5
f 386/2/5 381/2/5 385/2/5
f 388/4/5 383/4/5 382/4/5
f 391/3/5 388/3/5 387/3/5
f 392/4/5 383/4/5 388/4/5
f 392/3/5 388/3/5 391/3/5
f 393/4/5 383/4/5 392/4/5
f 394/2/5 381/2/5 386/2/5
f 395/2/5 381/2/5 394/2/5
f 396/4/5 390/4/5 389/4/5
f 397/4/5 390/4/5 396/4/5
f 400/1/5 393/1/5 392/1/5
f 400/1/5 396/1/5 395/1/5
f 400/1/5 395/1/5 394/1/5
f 400/1/5 394/1/5 393/1/5
f 401/1/5 396/1/5 400/1/5
f 402/1/5 396/1/5 401/1/5
f 403/1/5 396/1/5 402/1/5
f 404/1/5 396/1/5 403/1/5
f 405/4/5 398/4/5 397/4/5
f 406/4/5 398/4/5 405/4/5
f 407/3/5 400/3/5 399/3/5
f 408/4/5 401/4/5 400/4/5
f 408/3/5 400/3/5 407/3/5
f 409/4/5 405/4/5 404/4/5
f 410/4/5 405/4/5 409/4/5
f 411/4/5 401/4/5 408/4/5
f 412/4/5 401/4/5 411/4/5
f 416/2/5 403/2/5 402/2/5
f 417/4/5 414/4/5 413/4/5
f 418/4/5 414/4/5 417/4/5
f 420/2/5 416/2/5 415/2/5
f 420/2/5 403/2/5 416/2/5
f 421/2/5 403/2/5 420/2/5
f 422/4/5 419/4/5 418/4/5
f 423/4/5 419/4/5 422/4/5
f 425/4/5 424/4/5 423/4/5
f 426/4/5 424/4/5 425/4/5
f 428/2/5 420/2/5 415/2/5
f 429/2/5 428/2/5 427/2/5
f 429/2/5 420/2/5 428/2/5
f 430/2/5 420/2/5 429/2/5
f 431/4/5 427/4/5 426/4/5
f 432/2/5 429/2/5 427/2/5
f 432/4/5 427/4/5 431/4/5
f 433/2/5 429/2/5 432/2/5
f 434/4/5 433/4/5 432/4/5
f 435/4/5 433/4/5 434/4/5
f 438/3/5 437/3/5 436/3/5
f 439/3/5 437/3/5 438/3/5
f 440/3/6 441/3/6 442/3/6
f 442/3/6 441/3/6 443/3/6
f 444/2/6 445/2/6 446/2/6
f 446/2/6 445/2/6 447/2/6
f 446/4/6 447/4/6 449/4/6
f 449/4/6 447/4/6 450/4/6
f 448/4/6 449/4/6 452/4/6
f 449/2/6 450/2/6 453/2/6
f 452/4/6 449/4/6 453/4/6
f 453/2/6 450/2/6 454/2/6
f 451/4/6 452/4/6 457/4/6
f 457/4/6 452/4/6 458/4/6
f 453/2/6 454/2/6 459/2/6
f 454/2/6 455/2/6 459/2/6
f 459/2/6 455/2/6 460/2/6
f 460/2/6 455/2/6 461/2/6
f 456/4/6 457/4/6 464/4/6
f 464/4/6 457/4/6 465/4/6
f 461/2/6 462/2/6 466/2/6
f 460/2/6 461/2/6 466/2/6
f 466/2/6 462/2/6 467/2/6
f 463/4/6 464/4/6 469/4/6
f 468/3/6 469/3/6 472/3/6
f 469/4/6 464/4/6 473/4/6
f 472/3/6 469/3/6 473/3/6
f 473/4/6 464/4/6 474/4/6
f 467/2/6 462/2/6 475/2/6
f 475/2/6 462/2/6 476/2/6
f 470/4/6 471/4/6 477/4/6
f 477/4/6 471/4/6 478/4/6
f 473/1/6 474/1/6 481/1/6
f 476/1/6 477/1/6 481/1/6
f 475/1/6 476/1/6 481/1/6
f 474/1/6 475/1/6 481/1/6
f 481/1/6 477/1/6 482/1/6
f 482/1/6 477/1/6 483/1/6
f 483/1/6 477/1/6 484/1/6
f 484/1/6 477/1/6 485/1/6
f 478/4/6 479/4/6 486/4/6
f 486/4/6 479/4/6 487/4/6
f 480/3/6 481/3/6 488/3/6
f 481/4/6 482/4/6 489/4/6
f 488/3/6 481/3/6 489/3/6
f 485/4/6 486/4/6 490/4/6
f 490/4/6 486/4/6 491/4/6
f 483/2/6 484/2/6 493/2/6
f 489/4/6 482/4/6 494/4/6
f 494/4/6 482/4/6 495/4/6
f 492/2/6 493/2/6 497/2/6
f 493/2/6 484/2/6 497/2/6
f 497/2/6 484/2/6 498/2/6
f 495/4/6 496/4/6 499/4/6
f 499/4/6 496/4/6 500/4/6
f 500/4/6 501/4/6 502/4/6
f 502/4/6 501/4/6 503/4/6
f 492/2/6 497/2/6 505/2/6
f 504/2/6 505/2/6 506/2/6
f 505/2/6 497/2/6 506/2/6
f 506/2/6 497/2/6 507/2/6
f 503/4/6 504/4/6 508/4/6
f 504/2/6 506/2/6 509/2/6
f 508/4/6 504/4/6 509/4/6
f 509/2/6 506/2/6 510/2/6
f 509/4/6 510/4/6 511/4/6
f 511/4/6 510/4/6 512/4/6
f 513/3/6 514/3/6 517/3/6
f 517/3/6 514/3/6 518/3/6
f 515/4/6 516/4/6 519/4/6
f 519/4/6 516/4/6 520/4/6
